# xmcd
#
# Track frame offsets:
#	182
#	19860
#	32157
#	49507
#	63535
#	77467
#	93437
#	105222
#	120182
#	139820
#	155250
#	169507
#	181690
#	201317
#	216082
#	229982
#	248320
#	260207
#	276272
#
# Disc length: 3903
#
# Revision: 9
# Processed by: cddbd v1.5.1PL0 Copyright (c) Steve Scherf et al.
# Submitted via: CDex 1.40Release
# Normalized: r8:TDELIM( - )
#
DISCID=f40f3d13
DTITLE=Various Artist - Country Breeze
DYEAR=1900
DGENRE=Country
TTITLE0=Mindy McCready - Guys Do It All The Time
TTITLE1=Kentucky Headhunters - Singin'The Blues
TTITLE2=Diamond Rio - Walkin' Away
TTITLE3=Lonestar - Heartbroke Every Day
TTITLE4=Tammy Graham - Little By Little
TTITLE5=Alabama - Sad Lookin' Moon
TTITLE6=Katti - Mustang Canyon
TTITLE7=Pam Tillis - Maybe It Was Memphis
TTITLE8=Brooks&Dunn - Neon Moon
TTITLE9=Ray Vega - Only Sometimes
TTITLE10=Radney Foster - Just Call Me Lonesome
TTITLE11=Lee Roy Parnell - A Little Bit Of You
TTITLE12=Jill Morris - Mississippi
TTITLE13=BR5-49 - Even If It's Wrong
TTITLE14=Clint Black - A Better Man
TTITLE15=Blackhawk - That's Just About Right
TTITLE16=Alan Jackson - Little Bitty
TTITLE17=Prairie Oyster - Unbelievable Love
TTITLE18=Charlie Major - Someday I'm Gonna Ride In A Cadillac
EXTD=ID3G: 2
EXTT0=
EXTT1=
EXTT2=
EXTT3=
EXTT4=
EXTT5=
EXTT6=
EXTT7=
EXTT8=
EXTT9=
EXTT10=
EXTT11=
EXTT12=
EXTT13=
EXTT14=
EXTT15=
EXTT16=
EXTT17=
EXTT18=
PLAYORDER=
